<svg width="121" height="123" viewBox="0 0 121 123" fill="none" xmlns="http://www.w3.org/2000/svg">
<path fill-rule="evenodd" clip-rule="evenodd" d="M42.98 77.01C48.62 93.61 72.19 94.22 77.49 77.01C83.73 82.62 102.19 83.75 109.06 87.58C111.23 88.79 113.2 90.33 114.77 92.42C117.16 95.58 118.63 99.71 119.03 104.96L120.46 116.72C120.11 120.43 118.01 122.57 113.86 122.88H6.6C2.46 122.56 0.35 120.43 0 116.72L1.43 104.96C1.83 99.72 3.3 95.59 5.69 92.42C7.27 90.33 9.23 88.79 11.4 87.58C18.28 83.75 36.74 82.63 42.98 77.01ZM91.73 94.72H95.34C96.02 94.72 96.57 95.27 96.57 95.95V101.34H101.96C102.63 101.34 103.19 101.89 103.19 102.57V106.18C103.19 106.85 102.64 107.41 101.96 107.41H96.57V112.8C96.57 113.47 96.02 114.03 95.34 114.03H91.73C91.06 114.03 90.5 113.48 90.5 112.8V107.41H85.11C84.44 107.41 83.88 106.86 83.88 106.18V102.57C83.88 101.9 84.43 101.34 85.11 101.34H90.5V95.95C90.5 95.27 91.05 94.72 91.73 94.72ZM38.66 36.82C37.48 36.87 36.58 37.11 35.97 37.52C35.62 37.75 35.36 38.05 35.2 38.41C35.02 38.81 34.93 39.29 34.95 39.84C35 41.46 35.85 43.59 37.49 46.03L37.51 46.07L42.85 54.56C44.99 57.96 47.23 61.43 50.02 63.98C52.7 66.43 55.95 68.09 60.25 68.1C64.91 68.11 68.31 66.39 71.08 63.8C73.96 61.11 76.22 57.42 78.46 53.73L84.47 43.83C85.59 41.27 86 39.56 85.74 38.56C85.59 37.96 84.93 37.67 83.8 37.61C83.56 37.6 83.32 37.6 83.07 37.6C82.8 37.61 82.52 37.63 82.23 37.65C82.07 37.66 81.91 37.65 81.77 37.62C81.24 37.65 80.68 37.61 80.12 37.53L82.18 28.42C66.9 30.83 55.48 19.48 39.33 26.15L40.5 36.9C39.84 36.93 39.23 36.91 38.66 36.82ZM85.86 34.91C87.34 35.36 88.29 36.3 88.68 37.82C89.11 39.5 88.64 41.87 87.22 45.11C87.19 45.17 87.16 45.23 87.13 45.28L81.04 55.3C78.7 59.16 76.32 63.03 73.14 66C69.85 69.08 65.8 71.13 60.25 71.12C55.07 71.11 51.18 69.13 47.98 66.21C44.89 63.39 42.53 59.74 40.29 56.18L34.95 47.69C33 44.78 31.98 42.12 31.92 39.94C31.89 38.91 32.07 37.98 32.44 37.16C32.84 36.3 33.45 35.58 34.27 35.03C34.66 34.77 35.09 34.55 35.56 34.37C35.21 29.77 35.08 23.97 35.31 19.11C35.43 17.96 35.65 16.81 35.97 15.65C37.33 10.78 40.75 6.85997 44.99 4.15997C46.48 3.20997 48.12 2.41997 49.84 1.79997C60.1 -1.91003 73.69 0.109974 80.97 7.97997C83.93 11.19 85.79 15.44 86.19 21.06L85.86 34.91Z" fill="white"/>
</svg>
